<svg version="1.1" id="Layer_1" xmlns="http://www.w3.org/2000/svg" xmlns:xlink="http://www.w3.org/1999/xlink" x="0" y="0" viewBox="0 0 90.4 56" xml:space="preserve"><style>.st1{fill:#e31937}.st2{fill:#fff}.st5{fill:#ef3e42}</style><defs><path id="SVGID_1_" d="M62.4 0c15.5 0 28 12.5 28 28s-12.5 28-28 28-28-12.5-28-28 12.5-28 28-28z"/></defs><clipPath id="SVGID_2_"><use xlink:href="#SVGID_1_" overflow="visible"/></clipPath><g clip-path="url(#SVGID_2_)"><path d="M92.6 27.8c0 16.3-13.2 29.4-29.4 29.4-16.3 0-29.4-13.2-29.4-29.4C33.8 11.5 47-1.6 63.2-1.6c16.2-.1 29.4 13.1 29.4 29.4z"/><path class="st1" d="M33.4 27.8C33.4 37.3 38 45.7 45 51V4.5c-7.1 5.3-11.6 13.8-11.6 23.3zM91.4 27.8c0-9.5-4.6-17.9-11.6-23.2V51c7.1-5.3 11.6-13.7 11.6-23.2z"/><path class="st2" d="M45 4.5V51c4.9 3.6 10.9 5.8 17.4 5.8 6.5 0 12.6-2.2 17.4-5.8V4.5C75 .9 68.9-1.3 62.4-1.3 55.9-1.3 49.8.9 45 4.5z"/><path class="st1" d="M62.4 44.7h.6l-.2-7.9c0-.3.3-.5.6-.5 2.5.3 4.7.6 7.2.9l-.7-2.2c-.1-.4 0-.8.3-1l7.2-6.1-1.5-.7c-.7-.2-.5-.6-.2-1.6l1.1-4.2-4.2.9c-.4.1-.7-.2-.7-.5l-.5-2-3.4 4c-.5.6-1.4.6-1.1-.8l1.4-7.8-1.9 1c-.5.3-1.1.4-1.4-.2l-2.7-5.1-2.7 5.1c-.3.6-.8.5-1.4.2l-1.9-1 1.4 7.8c.3 1.4-.7 1.4-1.1.8l-3.3-3.9-.5 2c-.1.3-.3.5-.7.5l-4.1-1 1.1 4.2c.2.9.4 1.3-.2 1.6l-1.5.7 7.2 6.1c.3.2.4.6.3 1l-.6 2.2c2.5-.3 4.7-.6 7.2-.9.2 0 .6.2.6.5l-.2 7.9h.5z"/></g><g><defs><path id="SVGID_3_" d="M31.4 28c0-9.6 4.4-18.2 11.2-23.9C38.4 1.5 33.4 0 28 0 12.5 0 0 12.5 0 28s12.5 28 28 28c5.4 0 10.4-1.5 14.6-4.1-6.8-5.7-11.2-14.3-11.2-23.9z"/></defs><clipPath id="SVGID_4_"><use xlink:href="#SVGID_3_" overflow="visible"/></clipPath><g clip-path="url(#SVGID_4_)"><ellipse cx="25.9" cy="28.3" rx="29.4" ry="29.4"/><path d="M56.3 28.2c0 16.5-13.4 29.9-29.9 29.9S-3.5 44.7-3.5 28.2 9.9-1.7 26.4-1.7s29.9 13.4 29.9 29.9z"/><path d="M31.7-.8v2.9L21.4 9h10.4v8.9H21.3l10.4 6.9v3.4h-5.1L14 19.8v8.4H5.2v-8.4L-3 25.2c-.1 1-.1 2-.1 3 0 16.3 13.2 29.5 29.5 29.5s29.5-13.2 29.5-29.5c0-14.5-10.4-26.5-24.2-29zM12.6 49.5l-3-3.2-3 3.2.6-4.4-4.4-.4 3.8-2.2-2.4-3.7 4.1 1.6 1.3-4.2 1.4 4.2 4.1-1.6-2.4 3.7 3.8 2.2-4.5.4.6 4.4zm31.7-21.8l-1.5-1.6-1.5 1.6.3-2.1-2.1-.2 1.9-1.1-1.2-1.8 2 .8.7-2.1.7 2.1 2-.8-1.2 1.8 1.9 1.1-2.3.2.3 2.1zm-17.9-29c-4.4 0-8.6 1-12.4 2.7v5.7l12.6-8.4h-.2z" fill="#004990"/><path class="st2" d="M18.6 10.9h13.1V9H21.4zM12.2 18.6v9.6H14v-8.4zM21.3 17.9h10.4V16H18.5zM14 7.1V1.4l-1.8.9v6L14 7.1zM7 5.9c-.5.5-1 1-1.5 1.4l1.5 1V5.9zM-.5 16c-.2.3-.3.7-.5 1l1.6-1H-.5zM5.2 19.8v8.4H7v-9.6z"/><path class="st2" d="M18.5 16h-6.3v2.6l1.8 1.2 12.6 8.4h5.1v-.1L16.3 17.9h3.5l11.9 7.9v-1l-10.4-6.9zM7 8.3l-1.5-1c-1.1 1.1-2.1 2.3-3 3.5H7V8.3zM12.2 8.3v2.5h6.4L21.4 9l10.4-6.9V-.8c-.2 0-.4-.1-.6-.1l-15 10H14v-1l14.1-9.4c-.5 0-1 0-1.5-.1L14 7.1l-1.8 1.2zM7 18.6V16H.6L-1 17c-.6 1.4-1 2.8-1.4 4.2l5.2-3.4h2.3v.8l-8 5.3c-.1.4-.1.8-.2 1.3L5 19.8l2-1.2z"/><path class="st5" d="M7 16v12.2h5.2V16h19.6v-5.2H12.2V2.3c-1.9 1-3.6 2.2-5.2 3.6v4.9H2.5C1.3 12.4.3 14.1-.5 16H7z"/><path class="st5" d="M16.3 17.9l15.4 10.2v-2.3l-11.9-7.9zM14 9h2.2l15-10c-1-.2-2-.3-3-.3L14 8.1V9zM5.2 17.9H2.8l-5.2 3.4c-.2.9-.4 1.8-.5 2.7l8-5.3.1-.8z"/><path class="st2" d="M12.6 42.5l2.5-3.7-4.2 1.6-1.3-4.2-1.4 4.2-4.1-1.6 2.5 3.7-3.8 2.2 4.4.4-.7 4.4 3.1-3.2 3 3.2-.6-4.4 4.4-.4zM44.3 24.3l1.2-1.8-2 .8-.7-2.1-.6 2.1-2.1-.8 1.2 1.8-1.8 1.1 2.1.2-.3 2.1 1.5-1.5 1.5 1.5-.3-2.1 2.2-.2z"/></g></g><g><path d="M62.4.2C77.7.2 90.2 12.7 90.2 28S77.7 55.8 62.4 55.8 34.6 43.3 34.6 28 47.1.2 62.4.2m0-.2c-15.5 0-28 12.5-28 28s12.5 28 28 28 28-12.5 28-28-12.5-28-28-28z" fill="#dadada"/></g></svg>