<svg version="1.1" id="Layer_1" xmlns="http://www.w3.org/2000/svg" xmlns:xlink="http://www.w3.org/1999/xlink" x="0" y="0" viewBox="0 0 90.4 56" xml:space="preserve"><style>.st1{fill:#fff}.st2{fill:#e31937}.st3{fill:#004990}.st5{fill:#ef3e42}</style><defs><path id="SVGID_1_" d="M62.4 0c15.5 0 28 12.5 28 28s-12.5 28-28 28-28-12.5-28-28 12.5-28 28-28z"/></defs><clipPath id="SVGID_2_"><use xlink:href="#SVGID_1_" overflow="visible"/></clipPath><g clip-path="url(#SVGID_2_)"><path d="M91.8 28c0 16.3-13.2 29.4-29.4 29.4C46.1 57.4 33 44.3 33 28 33 11.7 46.1-1.4 62.4-1.4c16.3 0 29.4 13.1 29.4 29.4z"/><path class="st1" d="M76.7 27.2l1.9-1.4 1.9 1.4-.8-2.2 1.9-1.4h-2.3l-.7-2.2-.7 2.2h-2.3l1.9 1.4-.8 2.2zm-.2-3.2H78l.5-1.5.5 1.5h1.5l-1.3.9.5 1.5-1.2-.9-1.2.9.5-1.5-1.3-.9z"/><path class="st2" d="M77.3 26.3l1.2-.9 1.3.9-.5-1.4 1.3-.9H79l-.5-1.5-.4 1.5h-1.6l1.3.9z"/><path class="st3" d="M67.6-.6v2.9L57.4 9.1h10.2v8.7H57.4l10.2 6.8V28h-5l-12.4-8.3V28h-8.7v-8.3l-8 5.3c-.1 1-.1 1.9-.1 2.9 0 16 13 29 29 29s29-13 29-29c0-14.1-10.2-26-23.8-28.5zm12.8 27.8l-1.9-1.4-1.9 1.4.7-2.2-1.9-1.4h2.3l.7-2.2.7 2.2h2.3L79.7 25l.7 2.2zM62.5-1h-.1C58.1-1 54 0 50.3 1.7v5.6L62.6-1h-.1z"/><path class="st1" d="M48.4 18.5V28h1.8v-8.3zM57.4 17.8h10.2V16H54.7zM41.5 19.7V28h1.8v-9.5zM50.2 7.2V1.6l-1.8.9v5.9l1.8-1.2zM35.9 16c-.2.3-.3.7-.4 1l1.5-1h-1.1zM67.6 9.1H57.4l-2.7 1.8h12.9zM43.3 6.1c-.5.4-1 .9-1.5 1.4l1.5 1V6.1z"/><path class="st1" d="M54.7 16h-6.3v2.5l1.8 1.2L62.6 28h5v-.1L52.5 17.8h3.4l11.7 7.8v-.9l-10.2-6.9zM43.3 8.4l-1.5-1c-1.1 1.1-2.1 2.2-3 3.5h4.4V8.4zM48.4 8.4v2.5h6.3l2.7-1.8 10.2-6.8V-.6c-.2 0-.4-.1-.6-.1L52.4 9.1h-2.1v-.8L64.1-1h-1.5L50.2 7.2l-1.8 1.2zM43.3 18.5V16H37l-1.5 1c-.5 1.3-1 2.7-1.3 4.2l5.1-3.4h2.3v.8l-7.8 5.2c-.1.4-.1.8-.2 1.2l8-5.3 1.7-1.2z"/><path class="st2" d="M43.3 16v12h5.1V16h19.3v-5.1H48.4V2.5c-1.8 1-3.5 2.2-5.1 3.6v4.8h-4.4c-1.1 1.6-2.1 3.3-3 5.1h7.4z"/><path class="st2" d="M52.5 17.8l15.1 10.1v-2.3l-11.7-7.8zM50.2 9.1h2.1L67-.7c-1-.2-2-.3-3-.3L50.2 8.3v.8zM41.5 17.8h-2.3l-5.1 3.4c-.2.9-.4 1.7-.5 2.6l7.8-5.2v-.8z"/></g><g><defs><path id="SVGID_3_" d="M31.4 28c0-9.6 4.4-18.2 11.2-23.9C38.4 1.5 33.4 0 28 0 12.5 0 0 12.5 0 28s12.5 28 28 28c5.4 0 10.4-1.5 14.6-4.1-6.8-5.7-11.2-14.3-11.2-23.9z"/></defs><clipPath id="SVGID_4_"><use xlink:href="#SVGID_3_" overflow="visible"/></clipPath><g clip-path="url(#SVGID_4_)"><ellipse cx="25.9" cy="28.3" rx="29.4" ry="29.4"/><path d="M56.3 28.2c0 16.5-13.4 29.9-29.9 29.9S-3.5 44.7-3.5 28.2 9.9-1.7 26.4-1.7s29.9 13.4 29.9 29.9z"/><path class="st3" d="M31.7-.8v2.9L21.4 9h10.4v8.9H21.3l10.4 6.9v3.4h-5.1L14 19.8v8.4H5.2v-8.4L-3 25.2c-.1 1-.1 2-.1 3 0 16.3 13.2 29.5 29.5 29.5s29.5-13.2 29.5-29.5c0-14.5-10.4-26.5-24.2-29zM12.6 49.5l-3-3.2-3 3.2.6-4.4-4.4-.4 3.8-2.2-2.4-3.7 4.1 1.6 1.3-4.2 1.4 4.2 4.1-1.6-2.4 3.7 3.8 2.2-4.5.4.6 4.4zm31.7-21.8l-1.5-1.6-1.5 1.6.3-2.1-2.1-.2 1.9-1.1-1.2-1.8 2 .8.7-2.1.7 2.1 2-.8-1.2 1.8 1.9 1.1-2.3.2.3 2.1zm-17.9-29c-4.4 0-8.6 1-12.4 2.7v5.7l12.6-8.4h-.2z"/><path class="st1" d="M18.6 10.9h13.1V9H21.4zM12.2 18.6v9.6H14v-8.4zM21.3 17.9h10.4V16H18.5zM14 7.1V1.4l-1.8.9v6L14 7.1zM7 5.9c-.5.5-1 1-1.5 1.4l1.5 1V5.9zM-.5 16c-.2.3-.3.7-.5 1l1.6-1H-.5zM5.2 19.8v8.4H7v-9.6z"/><path class="st1" d="M18.5 16h-6.3v2.6l1.8 1.2 12.6 8.4h5.1v-.1L16.3 17.9h3.5l11.9 7.9v-1l-10.4-6.9zM7 8.3l-1.5-1c-1.1 1.1-2.1 2.3-3 3.5H7V8.3zM12.2 8.3v2.5h6.4L21.4 9l10.4-6.9V-.8c-.2 0-.4-.1-.6-.1l-15 10H14v-1l14.1-9.4c-.5 0-1 0-1.5-.1L14 7.1l-1.8 1.2zM7 18.6V16H.6L-1 17c-.6 1.4-1 2.8-1.4 4.2l5.2-3.4h2.3v.8l-8 5.3c-.1.4-.1.8-.2 1.3L5 19.8l2-1.2z"/><path class="st5" d="M7 16v12.2h5.2V16h19.6v-5.2H12.2V2.3c-1.9 1-3.6 2.2-5.2 3.6v4.9H2.5C1.3 12.4.3 14.1-.5 16H7z"/><path class="st5" d="M16.3 17.9l15.4 10.2v-2.3l-11.9-7.9zM14 9h2.2l15-10c-1-.2-2-.3-3-.3L14 8.1V9zM5.2 17.9H2.8l-5.2 3.4c-.2.9-.4 1.8-.5 2.7l8-5.3.1-.8z"/><path class="st1" d="M12.6 42.5l2.5-3.7-4.2 1.6-1.3-4.2-1.4 4.2-4.1-1.6 2.5 3.7-3.8 2.2 4.4.4-.7 4.4 3.1-3.2 3 3.2-.6-4.4 4.4-.4zM44.3 24.3l1.2-1.8-2 .8-.7-2.1-.6 2.1-2.1-.8 1.2 1.8-1.8 1.1 2.1.2-.3 2.1 1.5-1.5 1.5 1.5-.3-2.1 2.2-.2z"/></g></g></svg>