<svg version="1.1" id="Layer_1" xmlns="http://www.w3.org/2000/svg" xmlns:xlink="http://www.w3.org/1999/xlink" x="0" y="0" viewBox="0 0 90.4 56" xml:space="preserve"><style>.st1{fill:#fff}.st2{fill:#bf0a30}.st5{fill:#e31937}.st8{fill:#fc0}</style><defs><path id="SVGID_1_" d="M62.4 0c15.5 0 28 12.5 28 28s-12.5 28-28 28-28-12.5-28-28 12.5-28 28-28z"/></defs><clipPath id="SVGID_2_"><use xlink:href="#SVGID_1_" overflow="visible"/></clipPath><g clip-path="url(#SVGID_2_)"><circle cx="62.8" cy="28.3" r="30.6"/><path class="st1" d="M33.4 35.3h58.7c.4-1.5.6-3.1.7-4.6H32.7c.1 1.5.3 3.1.7 4.6zM37.3 44.6h50.9c.9-1.5 1.8-3 2.4-4.6H34.9c.7 1.6 1.5 3.1 2.4 4.6zM46.7 53.9h32.2c2.1-1.3 4-2.9 5.7-4.6H41c1.7 1.7 3.6 3.2 5.7 4.6zM78.8 2.8H46.7c-2.1 1.3-4 2.9-5.7 4.6h43.5c-1.7-1.8-3.6-3.3-5.7-4.6z"/><path class="st2" d="M34.9 39.9h55.8c.6-1.5 1.1-3 1.5-4.6H33.4c.4 1.6.9 3.1 1.5 4.6zM41 49.2h43.5c1.4-1.4 2.6-3 3.7-4.6H37.3c1.1 1.6 2.3 3.2 3.7 4.6zM62.8 58.5c5.9 0 11.4-1.7 16.1-4.6H46.7c4.6 2.9 10.1 4.6 16.1 4.6zM33.4 21.3h58.7c-.4-1.6-.9-3.2-1.5-4.6H34.9c-.6 1.5-1.1 3-1.5 4.6zM32.6 28.3c0 .8 0 1.6.1 2.3h60.2c.1-.8.1-1.5.1-2.3s0-1.6-.1-2.3H32.7c-.1.8-.1 1.5-.1 2.3zM41 7.4c-1.4 1.4-2.6 3-3.7 4.6h50.9c-1.1-1.7-2.3-3.2-3.7-4.6H41zM62.8-1.9c-5.9 0-11.4 1.7-16.1 4.6h32.2C74.2-.2 68.7-1.9 62.8-1.9z"/><path class="st1" d="M32.7 26h60.2c-.1-1.6-.4-3.1-.7-4.6H33.4c-.4 1.5-.6 3-.7 4.6zM34.9 16.7h55.8c-.7-1.6-1.5-3.2-2.4-4.6h-51c-.9 1.4-1.7 3-2.4 4.6z"/><g><path d="M62.7-1.9C46-1.9 32.5 11.6 32.5 28.3c0 .8 0 1.6.1 2.4h30.1V-1.9z" fill="#002868"/><path class="st1" d="M34.4 17.9c0 .1-.1.2-.1.3l.1-.3zM34.1 18.9c-.1.3-.2.6-.3 1l.3-1zM35.5 28.9l-.9-.6-.9.6.4-1-.9-.7h1.1l.3-1 .4 1h1.1l-.9.7zM39.6 24.4l-.9-.7-.9.7.3-1.1-.9-.6h1.1l.4-1 .3 1h1.1l-.9.6zM39.3 14.1l.4 1.1-.9-.7-.9.7.3-1.1-.9-.6h1.1l.4-1 .3 1h1.1zM43.8 28.9l-.9-.6-.9.6.3-1-.9-.7h1.2l.3-1 .3 1h1.1l-.9.7zM43.8 18.6l-.4.3.4 1-.9-.6-.9.6.3-1-.4-.3-.5-.4h1.2l.3-1 .3 1h1.1zM43.4 9.5l.4 1-.9-.6-.9.6.3-1-.9-.7h1.2l.3-1 .3 1h1.1zM47.8 24.7l-.9-.6-.9.6.4-1-.9-.7h1.1l.3-1 .4 1h1.1l-.9.7zM47.6 14.5l.3 1-.9-.6-.9.6.4-1-.9-.7h1.1l.3-1 .4 1h1.1zM47.7 5.2l.3 1-.9-.6-.9.6.3-1-.8-.7h1.1l.3-1 .3 1h1.1zM52 28.9l-.9-.6-.8.6.3-1-.9-.7h1.1l.3-1 .4 1h1.1l-.9.7zM52.1 18.6l-.4.3.3 1-.9-.6-.8.6.3-1-.4-.3-.5-.4h1.1l.3-1 .4 1h1.1zM51.7 9.5l.3 1-.9-.6-.8.6.3-1-.9-.7h1.1l.3-1 .4 1h1.1zM56.1 24.7l-.9-.6-.9.6.3-1-.9-.7h1.2l.3-1 .3 1h1.1l-.9.7zM55.8 14.5l.4 1-.9-.6-.9.6.3-1-.9-.7h1.1l.4-1 .3 1h1.1zM55.9 5.2l.4 1-.9-.6-.9.6.3-1-.9-.7H55l.4-1 .3 1h1.1zM60.3 28.9l-.9-.6-.9.6.4-1-.9-.7h1.1l.3-1 .3 1h1.1l-.8.7zM60.4 18.6l-.4.3.3 1-.9-.6-.9.6.4-1-.4-.3-.5-.4h1.1l.3-1 .3 1h1.1zM60 9.5l.3 1-.9-.6-.9.6.4-1-.9-.7h1.1l.3-1 .3 1h1.1zM60 .3l.3 1-.9-.6-.9.6.4-1-.9-.7h1.1l.3-1 .3 1h1.1zM51.1.7l.9.6-.3-1 .1-.1c-.5.2-.9.4-1.4.6l-.2.6.9-.7z"/><path class="st1" d="M51.1 7.8l-.3 1h-1.1l.9.7-.3 1 .8-.6.9.6-.3-1 .9-.7h-1.1zM51.1 17.2l-.3 1h-1.1l.5.4.4.3-.3 1 .8-.6.9.6-.3-1 .4-.3.5-.4h-1.1zM51.5 27.2l-.4-1-.3 1h-1.1l.9.7-.3 1 .8-.6.9.6-.3-1 .9-.7zM42.9 7.8l-.3 1h-1.2l.9.7-.3 1 .9-.6.9.6-.4-1 .9-.7h-1.1zM42.9 17.2l-.3 1h-1.2l.5.4.4.3-.3 1 .9-.6.9.6-.4-1 .4-.3.5-.4h-1.1zM43.2 27.2l-.3-1-.3 1h-1.2l.9.7-.3 1 .9-.6.9.6-.4-1 .9-.7zM34.6 17.2l-.2.7c.1-.2.2-.4.2-.7z"/><path class="st1" d="M35.5 19.9l-.3-1.1.4-.3.5-.4H35l-.3-1-.3.6-.1.3c-.1.2-.1.4-.2.6l-.3 1v.1l.9-.6.8.8zM35 27.2l-.4-1-.3 1h-1.1l.9.7-.4 1 .9-.6.9.6-.3-1 .9-.7zM55.3 12.8l-.4 1h-1.1l.9.7-.3 1 .9-.6.9.6-.4-1 .9-.7h-1.1zM55.5 23l-.3-1-.3 1h-1.2l.9.7-.3 1 .9-.6.9.6-.4-1 .9-.7zM47 12.8l-.3 1h-1.1l.9.7-.4 1 .9-.6.9.6-.3-1 .9-.7h-1.1zM47.3 23l-.4-1-.3 1h-1.1l.9.7-.4 1 .9-.6.9.6-.3-1 .9-.7zM38.8 12.5l-.4 1h-1.1l.9.6-.3 1.1.9-.7.9.7-.4-1.1.9-.6h-1.1zM39 22.7l-.3-1-.4 1h-1.1l.9.6-.3 1.1.9-.7.9.7-.4-1.1.9-.6zM59.4 7.8l-.3 1H58l.9.7-.4 1 .9-.6.9.6-.3-1 .8-.7h-1.1zM47.1 3.5l-.3 1h-1.1l.8.7-.3 1 .9-.6.9.6-.3-1 .8-.7h-1.1zM55.4 3.5l-.4 1h-1.1l.9.7-.3 1 .9-.6.9.6-.4-1 .9-.7h-1.1zM59.4-1.4l-.3 1H58l.9.7-.4 1 .9-.6.9.6-.3-1 .8-.7h-1.1zM59.4 17.2l-.3 1H58l.5.4.4.3-.4 1 .9-.6.9.6-.3-1 .4-.3.4-.4h-1.1zM59.7 27.2l-.3-1-.3 1H58l.9.7-.4 1 .9-.6.9.6-.3-1 .8-.7z"/></g></g><g><defs><path id="SVGID_3_" d="M62.4 0c15.5 0 28 12.5 28 28s-12.5 28-28 28-28-12.5-28-28 12.5-28 28-28z"/></defs><clipPath id="SVGID_4_"><use xlink:href="#SVGID_3_" overflow="visible"/></clipPath><g clip-path="url(#SVGID_4_)"><path d="M91.2 28.3c0 15.9-12.9 28.8-28.8 28.8S33.6 44.2 33.6 28.3 46.5-.5 62.4-.5c15.9-.1 28.8 12.8 28.8 28.8z"/><path class="st5" d="M33.9 28.3c0 9.3 4.5 17.6 11.4 22.8V5.5c-6.9 5.2-11.4 13.4-11.4 22.8zM90.9 28.3c0-9.3-4.5-17.6-11.4-22.8V51c6.9-5.2 11.4-13.4 11.4-22.7z"/><path class="st1" d="M45.3 5.5V51c4.8 3.6 10.7 5.7 17.1 5.7 6.4 0 12.3-2.1 17.1-5.7V5.5C74.7 1.9 68.8-.2 62.4-.2 56-.2 50.1 1.9 45.3 5.5z"/><path class="st5" d="M62.4 44.9h.6l-.2-7.8c0-.3.3-.5.5-.5 2.4.3 4.6.6 7 .8l-.6-2.1c-.1-.4 0-.8.3-1l7.1-6-1.5-.7c-.6-.2-.5-.6-.2-1.5l1.1-4.1-4.1.9c-.4.1-.7-.2-.7-.5l-.5-1.9-3.2 3.8c-.5.6-1.4.6-1.1-.8l1.4-7.7-1.9 1c-.5.3-1 .4-1.3-.2l-2.6-5-2.6 5c-.3.5-.8.5-1.3.2l-1.9-1 1.4 7.7c.3 1.4-.6 1.4-1.1.8l-3.2-3.8-.5 1.9c-.1.3-.3.5-.7.5l-4.3-.9 1.1 4.1c.2.9.4 1.3-.2 1.5l-1.5.7 7.1 6c.3.2.4.6.3 1l-.6 2.1c2.4-.3 4.6-.6 7-.8.2 0 .5.2.5.5l-.2 7.8h.6z"/></g></g><g><defs><path id="SVGID_5_" d="M31.4 28c0-9.6 4.4-18.2 11.2-23.9C38.4 1.5 33.4 0 28 0 12.5 0 0 12.5 0 28s12.5 28 28 28c5.4 0 10.4-1.5 14.6-4.1-6.8-5.7-11.2-14.3-11.2-23.9z"/></defs><clipPath id="SVGID_6_"><use xlink:href="#SVGID_5_" overflow="visible"/></clipPath><g clip-path="url(#SVGID_6_)"><path d="M57.2 28c0 16.1-13.1 29.2-29.2 29.2S-1.2 44.1-1.2 28 11.9-1.2 28-1.2c16.1.1 29.2 13.1 29.2 29.2z"/><ellipse cx="27.9" cy="28" rx="28.8" ry="28.8" fill="#039"/><path class="st8" d="M28 8.8l.6 1.8h1.8l-1.5 1.1.6 1.7-1.5-1.1-1.5 1.1.6-1.7-1.5-1.1h1.8zM19.5 11.1l.6 1.8h1.8l-1.5 1 .6 1.8-1.5-1.1-1.5 1.1.6-1.8-1.5-1h1.8zM13.3 17.4l.5 1.7h1.9l-1.5 1.1.6 1.7-1.5-1.1-1.5 1.1.6-1.7-1.5-1.1h1.8zM36.5 11.1l.6 1.8h1.8L37.4 14l.6 1.7-1.5-1.1-1.5 1.1.6-1.7-1.5-1.1h1.8zM44.8 19l-1.4 1 .5 1.8-1.4-1.1-1.5 1.1.5-1.7-1.4-1.1h1.8l.6-1.8.5 1.8zM47.2 27.5l-1.5 1.1.6 1.8-1.5-1.1-1.5 1 .6-1.7-1.5-1.1h1.8l.6-1.7.6 1.7zM44.1 38.6l-1.5-1.1-1.5 1.1.6-1.7-1.5-1.1H42l.6-1.8.6 1.8H45l-1.5 1.1zM26.7 47.2l.5-1.7-1.4-1.1h1.8l.5-1.8.6 1.8h1.8l-1.4 1 .5 1.8-1.4-1.1zM18.2 44.9l.5-1.7-1.4-1.1h1.8l.5-1.7.6 1.7H22l-1.5 1.1.6 1.7-1.5-1zM37.8 44.9l-1.4-1.1-1.5 1.1.6-1.8-1.5-1h1.8l.6-1.8.5 1.8h1.9l-1.5 1zM8.8 27.6h1.8l.6-1.8.6 1.8h1.8l-1.5 1.1.6 1.7-1.5-1.1-1.5 1.1.6-1.7zM11.9 38.6l.6-1.8-1.5-1h1.9l.5-1.8.6 1.8h1.8l-1.5 1 .6 1.8-1.5-1.1z"/></g></g><g><path d="M62.4.2C77.7.2 90.2 12.7 90.2 28S77.7 55.8 62.4 55.8 34.6 43.3 34.6 28 47.1.2 62.4.2m0-.2c-15.5 0-28 12.5-28 28s12.5 28 28 28 28-12.5 28-28-12.5-28-28-28z" fill="#dadada"/></g></svg>