<svg version="1.1" id="Layer_1" xmlns="http://www.w3.org/2000/svg" xmlns:xlink="http://www.w3.org/1999/xlink" x="0" y="0" viewBox="0 0 90.4 56" xml:space="preserve"><style>.st1{fill:#fff}.st2{fill:#bf0a30}.st5{fill:#01247d}.st6{fill:#cf142b}.st9{fill:#fc0}</style><defs><path id="SVGID_1_" d="M62.4 0c15.5 0 28 12.5 28 28s-12.5 28-28 28-28-12.5-28-28 12.5-28 28-28z"/></defs><clipPath id="SVGID_2_"><use xlink:href="#SVGID_1_" overflow="visible"/></clipPath><g clip-path="url(#SVGID_2_)"><circle cx="62.8" cy="28.3" r="30.6"/><path class="st1" d="M33.4 35.3h58.7c.4-1.5.6-3.1.7-4.6H32.7c.1 1.5.3 3.1.7 4.6zM37.3 44.6h50.9c.9-1.5 1.8-3 2.4-4.6H34.9c.7 1.6 1.5 3.1 2.4 4.6zM46.7 53.9h32.2c2.1-1.3 4-2.9 5.7-4.6H41c1.7 1.7 3.6 3.2 5.7 4.6zM78.8 2.8H46.7c-2.1 1.3-4 2.9-5.7 4.6h43.5c-1.7-1.8-3.6-3.3-5.7-4.6z"/><path class="st2" d="M34.9 39.9h55.8c.6-1.5 1.1-3 1.5-4.6H33.4c.4 1.6.9 3.1 1.5 4.6zM41 49.2h43.5c1.4-1.4 2.6-3 3.7-4.6H37.3c1.1 1.6 2.3 3.2 3.7 4.6zM62.8 58.5c5.9 0 11.4-1.7 16.1-4.6H46.7c4.6 2.9 10.1 4.6 16.1 4.6zM33.4 21.3h58.7c-.4-1.6-.9-3.2-1.5-4.6H34.9c-.6 1.5-1.1 3-1.5 4.6zM32.6 28.3c0 .8 0 1.6.1 2.3h60.2c.1-.8.1-1.5.1-2.3s0-1.6-.1-2.3H32.7c-.1.8-.1 1.5-.1 2.3zM41 7.4c-1.4 1.4-2.6 3-3.7 4.6h50.9c-1.1-1.7-2.3-3.2-3.7-4.6H41zM62.8-1.9c-5.9 0-11.4 1.7-16.1 4.6h32.2C74.2-.2 68.7-1.9 62.8-1.9z"/><path class="st1" d="M32.7 26h60.2c-.1-1.6-.4-3.1-.7-4.6H33.4c-.4 1.5-.6 3-.7 4.6zM34.9 16.7h55.8c-.7-1.6-1.5-3.2-2.4-4.6h-51c-.9 1.4-1.7 3-2.4 4.6z"/><g><path d="M62.7-1.9C46-1.9 32.5 11.6 32.5 28.3c0 .8 0 1.6.1 2.4h30.1V-1.9z" fill="#002868"/><path class="st1" d="M34.4 17.9c0 .1-.1.2-.1.3l.1-.3zM34.1 18.9c-.1.3-.2.6-.3 1l.3-1zM35.5 28.9l-.9-.6-.9.6.4-1-.9-.7h1.1l.3-1 .4 1h1.1l-.9.7zM39.6 24.4l-.9-.7-.9.7.3-1.1-.9-.6h1.1l.4-1 .3 1h1.1l-.9.6zM39.3 14.1l.4 1.1-.9-.7-.9.7.3-1.1-.9-.6h1.1l.4-1 .3 1h1.1zM43.8 28.9l-.9-.6-.9.6.3-1-.9-.7h1.2l.3-1 .3 1h1.1l-.9.7zM43.8 18.6l-.4.3.4 1-.9-.6-.9.6.3-1-.4-.3-.5-.4h1.2l.3-1 .3 1h1.1zM43.4 9.5l.4 1-.9-.6-.9.6.3-1-.9-.7h1.2l.3-1 .3 1h1.1zM47.8 24.7l-.9-.6-.9.6.4-1-.9-.7h1.1l.3-1 .4 1h1.1l-.9.7zM47.6 14.5l.3 1-.9-.6-.9.6.4-1-.9-.7h1.1l.3-1 .4 1h1.1zM47.7 5.2l.3 1-.9-.6-.9.6.3-1-.8-.7h1.1l.3-1 .3 1h1.1zM52 28.9l-.9-.6-.8.6.3-1-.9-.7h1.1l.3-1 .4 1h1.1l-.9.7zM52.1 18.6l-.4.3.3 1-.9-.6-.8.6.3-1-.4-.3-.5-.4h1.1l.3-1 .4 1h1.1zM51.7 9.5l.3 1-.9-.6-.8.6.3-1-.9-.7h1.1l.3-1 .4 1h1.1zM56.1 24.7l-.9-.6-.9.6.3-1-.9-.7h1.2l.3-1 .3 1h1.1l-.9.7zM55.8 14.5l.4 1-.9-.6-.9.6.3-1-.9-.7h1.1l.4-1 .3 1h1.1zM55.9 5.2l.4 1-.9-.6-.9.6.3-1-.9-.7H55l.4-1 .3 1h1.1zM60.3 28.9l-.9-.6-.9.6.4-1-.9-.7h1.1l.3-1 .3 1h1.1l-.8.7zM60.4 18.6l-.4.3.3 1-.9-.6-.9.6.4-1-.4-.3-.5-.4h1.1l.3-1 .3 1h1.1zM60 9.5l.3 1-.9-.6-.9.6.4-1-.9-.7h1.1l.3-1 .3 1h1.1zM60 .3l.3 1-.9-.6-.9.6.4-1-.9-.7h1.1l.3-1 .3 1h1.1zM51.1.7l.9.6-.3-1 .1-.1c-.5.2-.9.4-1.4.6l-.2.6.9-.7z"/><path class="st1" d="M51.1 7.8l-.3 1h-1.1l.9.7-.3 1 .8-.6.9.6-.3-1 .9-.7h-1.1zM51.1 17.2l-.3 1h-1.1l.5.4.4.3-.3 1 .8-.6.9.6-.3-1 .4-.3.5-.4h-1.1zM51.5 27.2l-.4-1-.3 1h-1.1l.9.7-.3 1 .8-.6.9.6-.3-1 .9-.7zM42.9 7.8l-.3 1h-1.2l.9.7-.3 1 .9-.6.9.6-.4-1 .9-.7h-1.1zM42.9 17.2l-.3 1h-1.2l.5.4.4.3-.3 1 .9-.6.9.6-.4-1 .4-.3.5-.4h-1.1zM43.2 27.2l-.3-1-.3 1h-1.2l.9.7-.3 1 .9-.6.9.6-.4-1 .9-.7zM34.6 17.2l-.2.7c.1-.2.2-.4.2-.7z"/><path class="st1" d="M35.5 19.9l-.3-1.1.4-.3.5-.4H35l-.3-1-.3.6-.1.3c-.1.2-.1.4-.2.6l-.3 1v.1l.9-.6.8.8zM35 27.2l-.4-1-.3 1h-1.1l.9.7-.4 1 .9-.6.9.6-.3-1 .9-.7zM55.3 12.8l-.4 1h-1.1l.9.7-.3 1 .9-.6.9.6-.4-1 .9-.7h-1.1zM55.5 23l-.3-1-.3 1h-1.2l.9.7-.3 1 .9-.6.9.6-.4-1 .9-.7zM47 12.8l-.3 1h-1.1l.9.7-.4 1 .9-.6.9.6-.3-1 .9-.7h-1.1zM47.3 23l-.4-1-.3 1h-1.1l.9.7-.4 1 .9-.6.9.6-.3-1 .9-.7zM38.8 12.5l-.4 1h-1.1l.9.6-.3 1.1.9-.7.9.7-.4-1.1.9-.6h-1.1zM39 22.7l-.3-1-.4 1h-1.1l.9.6-.3 1.1.9-.7.9.7-.4-1.1.9-.6zM59.4 7.8l-.3 1H58l.9.7-.4 1 .9-.6.9.6-.3-1 .8-.7h-1.1zM47.1 3.5l-.3 1h-1.1l.8.7-.3 1 .9-.6.9.6-.3-1 .8-.7h-1.1zM55.4 3.5l-.4 1h-1.1l.9.7-.3 1 .9-.6.9.6-.4-1 .9-.7h-1.1zM59.4-1.4l-.3 1H58l.9.7-.4 1 .9-.6.9.6-.3-1 .8-.7h-1.1zM59.4 17.2l-.3 1H58l.5.4.4.3-.4 1 .9-.6.9.6-.3-1 .4-.3.4-.4h-1.1zM59.7 27.2l-.3-1-.3 1H58l.9.7-.4 1 .9-.6.9.6-.3-1 .8-.7z"/></g></g><g><defs><path id="SVGID_3_" d="M62.4 0c15.5 0 28 12.5 28 28s-12.5 28-28 28-28-12.5-28-28 12.5-28 28-28z"/></defs><clipPath id="SVGID_4_"><use xlink:href="#SVGID_3_" overflow="visible"/></clipPath><g clip-path="url(#SVGID_4_)"><ellipse cx="62.5" cy="28" rx="28.8" ry="28.8"/><path class="st5" d="M36.2 17l-.9 2.4h4.5L36.2 17zM88.8 39c.3-.8.6-1.6.9-2.5h-4.5l3.6 2.5zM42.3 48c3.2 3.2 7.2 5.7 11.7 7.2V40.3L42.3 48zM54 .8C49.5 2.3 45.5 4.7 42.3 8L54 15.8V.8zM89.6 19.4l-.9-2.4-3.6 2.4h4.5zM71 55.2c4.5-1.4 8.4-3.8 11.7-7.2L71 40.3v14.9zM35.3 36.5c.3.8.6 1.7.9 2.5l3.6-2.5h-4.5zM82.7 7.9C79.5 4.7 75.5 2.2 71 .8v14.9l11.7-7.8z"/><path class="st1" d="M90.5 32.9h-23v23c1.2-.2 2.5-.5 3.5-.9V40.3L82.7 48c1.3-1.4 2.5-2.7 3.5-4.3l-10.8-7.2h6.8l5.9 3.9c.2-.5.5-1 .7-1.5l-3.6-2.5h4.5c.3-1 .6-2.2.8-3.5zM54 .8v14.9L42.3 7.8c-1.3 1.5-2.5 2.8-3.5 4.4l10.9 7.3H43l-6-4c-.3.5-.5 1.1-.7 1.6l3.6 2.4h-4.5c-.4 1.2-.7 2.4-.9 3.5h23V0c-1.2.2-2.4.5-3.5.8zM34.5 32.9c.2 1.2.5 2.4.9 3.5h4.5l-3.6 2.5c.7 1.7 1.6 3.2 2.5 4.7l10.8-7.2H54V38l-13 8.6c.4.5.8.9 1.3 1.4L54 40.3v14.9c1.2.4 2.4.7 3.5.9V32.9h-23zM89.6 19.4h-4.5l3.6-2.4c-.7-1.8-1.6-3.3-2.6-4.9l-10.9 7.3H71v-1.7l12.8-8.5c-.4-.4-.8-.9-1.2-1.3L71 15.8V.8c-1.2-.4-2.4-.7-3.5-.9v23h23c-.2-1.2-.5-2.3-.9-3.5z"/><path class="st6" d="M90.5 23h-23V0c-1.7-.3-3.2-.5-5-.5-1.7 0-3.3.2-5 .5v23h-23c-.3 1.7-.5 3.2-.5 5 0 1.7.2 3.3.5 5h23v23c1.6.3 3.2.5 5 .5 1.7 0 3.3-.2 5-.5V32.9h23c.3-1.7.5-3.2.5-5-.1-1.7-.2-3.3-.5-4.9z"/><path class="st6" d="M75.5 36.5l10.8 7.2c.7-1.1 1.3-2.2 1.9-3.2l-5.9-3.9h-6.8zM71 19.4h4.2l10.9-7.3c-.7-1.1-1.5-2.1-2.3-2.9L71 17.7v1.7zM54 36.5h-4.4l-10.8 7.2c.7 1.1 1.5 2.1 2.3 2.9L54 38v-1.5zM49.7 19.4l-11-7.2c-.7 1.1-1.3 2.2-1.9 3.2l6.1 3.9h6.8z"/></g></g><g><defs><path id="SVGID_5_" d="M31.4 28c0-9.6 4.4-18.2 11.2-23.9C38.4 1.5 33.4 0 28 0 12.5 0 0 12.5 0 28s12.5 28 28 28c5.4 0 10.4-1.5 14.6-4.1-6.8-5.7-11.2-14.3-11.2-23.9z"/></defs><clipPath id="SVGID_6_"><use xlink:href="#SVGID_5_" overflow="visible"/></clipPath><g clip-path="url(#SVGID_6_)"><path d="M57.2 28c0 16.1-13.1 29.2-29.2 29.2S-1.2 44.1-1.2 28 11.9-1.2 28-1.2c16.1.1 29.2 13.1 29.2 29.2z"/><ellipse cx="27.9" cy="28" rx="28.8" ry="28.8" fill="#039"/><path class="st9" d="M28 8.8l.6 1.8h1.8l-1.5 1.1.6 1.7-1.5-1.1-1.5 1.1.6-1.7-1.5-1.1h1.8zM19.5 11.1l.6 1.8h1.8l-1.5 1 .6 1.8-1.5-1.1-1.5 1.1.6-1.8-1.5-1h1.8zM13.3 17.4l.5 1.7h1.9l-1.5 1.1.6 1.7-1.5-1.1-1.5 1.1.6-1.7-1.5-1.1h1.8zM36.5 11.1l.6 1.8h1.8L37.4 14l.6 1.7-1.5-1.1-1.5 1.1.6-1.7-1.5-1.1h1.8zM44.8 19l-1.4 1 .5 1.8-1.4-1.1-1.5 1.1.5-1.7-1.4-1.1h1.8l.6-1.8.5 1.8zM47.2 27.5l-1.5 1.1.6 1.8-1.5-1.1-1.5 1 .6-1.7-1.5-1.1h1.8l.6-1.7.6 1.7zM44.1 38.6l-1.5-1.1-1.5 1.1.6-1.7-1.5-1.1H42l.6-1.8.6 1.8H45l-1.5 1.1zM26.7 47.2l.5-1.7-1.4-1.1h1.8l.5-1.8.6 1.8h1.8l-1.4 1 .5 1.8-1.4-1.1zM18.2 44.9l.5-1.7-1.4-1.1h1.8l.5-1.7.6 1.7H22l-1.5 1.1.6 1.7-1.5-1zM37.8 44.9l-1.4-1.1-1.5 1.1.6-1.8-1.5-1h1.8l.6-1.8.5 1.8h1.9l-1.5 1zM8.8 27.6h1.8l.6-1.8.6 1.8h1.8l-1.5 1.1.6 1.7-1.5-1.1-1.5 1.1.6-1.7zM11.9 38.6l.6-1.8-1.5-1h1.9l.5-1.8.6 1.8h1.8l-1.5 1 .6 1.8-1.5-1.1z"/></g></g></svg>