<svg version="1.1" id="Layer_1" xmlns="http://www.w3.org/2000/svg" xmlns:xlink="http://www.w3.org/1999/xlink" x="0" y="0" viewBox="0 0 90.4 56" xml:space="preserve"><style>.st2{fill:#fff}.st4{fill:#01247d}.st5{fill:#cf142b}</style><defs><path id="SVGID_1_" d="M62.4 0c15.5 0 28 12.5 28 28s-12.5 28-28 28-28-12.5-28-28 12.5-28 28-28z"/></defs><clipPath id="SVGID_2_"><use xlink:href="#SVGID_1_" overflow="visible"/></clipPath><g clip-path="url(#SVGID_2_)"><path d="M91.7 28.2c0 16.2-13.1 29.3-29.3 29.3-16.2 0-29.3-13.1-29.3-29.3C33.1 12 46.2-1.1 62.4-1.1c16.2 0 29.3 13.1 29.3 29.3z"/><path d="M91.3 28.2c0 15.9-12.9 28.9-28.9 28.9S33.5 44.2 33.5 28.2c0-16 12.9-28.9 28.9-28.9s28.9 13 28.9 28.9z" fill="#bd2925"/><path class="st2" d="M79.2 23.5h-12V11.4h-9.5v12.1H45.6V33h12.1v12.1h9.5V33h12z"/></g><g><defs><path id="SVGID_3_" d="M31.4 28c0-9.6 4.4-18.2 11.2-23.9C38.4 1.5 33.4 0 28 0 12.5 0 0 12.5 0 28s12.5 28 28 28c5.4 0 10.4-1.5 14.6-4.1-6.8-5.7-11.2-14.3-11.2-23.9z"/></defs><clipPath id="SVGID_4_"><use xlink:href="#SVGID_3_" overflow="visible"/></clipPath><g clip-path="url(#SVGID_4_)"><circle cx="27" cy="28.3" r="30.6"/><ellipse cx="27.9" cy="27.8" rx="29.4" ry="29.4"/><path class="st4" d="M1.1 16.6L.2 19h4.6l-3.7-2.4zM54.7 39c.3-.8.6-1.6.9-2.5H51l3.7 2.5zM7.3 48.2c3.3 3.3 7.3 5.8 11.9 7.3V40.3L7.3 48.2zM19.2 0c-4.6 1.5-8.7 4-11.9 7.3l11.9 8V0zM55.6 19l-.9-2.4L51 19h4.6zM36.6 55.5c4.6-1.4 8.6-3.9 11.9-7.3l-11.9-7.9v15.2zM.2 36.5c.3.8.6 1.7.9 2.5l3.7-2.5H.2zM48.5 7.3C45.3 4 41.2 1.5 36.6 0v15.2l11.9-7.9z"/><path class="st2" d="M56.5 32.8H33v23.5c1.2-.2 2.5-.5 3.6-.9V40.3l11.9 7.9c1.3-1.4 2.6-2.8 3.6-4.4l-11-7.3H48l6 4c.2-.5.5-1 .7-1.5L51 36.5h4.6c.4-1.2.7-2.4.9-3.7zM19.2 0v15.2l-11.9-8C6 8.7 4.8 10.1 3.7 11.7l11.1 7.4H8L1.9 15c-.3.5-.5 1.1-.7 1.6L4.9 19H.3c-.4 1.2-.7 2.4-.9 3.6h23.5V-.8c-1.3.2-2.5.5-3.7.8zM-.7 32.8c.2 1.2.5 2.4.9 3.6h4.6l-3.7 2.5c.7 1.7 1.6 3.3 2.6 4.8l11-7.3h4.5V38L6 46.8c.4.5.8.9 1.3 1.4l11.9-7.9v15.2c1.2.4 2.4.7 3.6.9V32.8H-.7zM55.6 19H51l3.7-2.4c-.7-1.8-1.6-3.4-2.7-5L40.9 19h-4.3v-1.7l13.1-8.7c-.4-.4-.8-.9-1.2-1.3l-11.9 8V0c-1.2-.4-2.4-.7-3.6-.9v23.5h23.5c-.2-1.2-.5-2.4-.9-3.6z"/><path class="st5" d="M56.5 22.7H33V-.8c-1.7-.3-3.3-.5-5.1-.5-1.7 0-3.4.2-5.1.5v23.5H-.7c-.3 1.7-.5 3.3-.5 5.1 0 1.7.2 3.4.5 5.1h23.5v23.5c1.6.3 3.3.5 5.1.5 1.7 0 3.4-.2 5.1-.5V32.8h23.5c.3-1.7.5-3.3.5-5.1-.1-1.7-.2-3.4-.5-5z"/><path class="st5" d="M41.2 36.5l11 7.3c.7-1.1 1.3-2.2 1.9-3.3l-6-4h-6.9zM36.6 19h4.3L52 11.6c-.7-1.1-1.5-2.1-2.3-3l-13.1 8.7V19zM19.2 36.5h-4.5l-11 7.3c.7 1.1 1.5 2.1 2.3 3L19.2 38v-1.5zM14.9 19L3.7 11.7C3 12.8 2.4 13.9 1.8 15L8 19h6.9z"/></g></g></svg>